<svg aria-roledescription="er" viewBox="0 0 845.8374633789062 290" style="max-width: 100%;" xmlns="http://www.w3.org/2000/svg" width="100%" id="graph-div" height="100%" xmlns:xlink="http://www.w3.org/1999/xlink"><style>@import url("https://cdnjs.cloudflare.com/ajax/libs/font-awesome/6.2.1/css/all.min.css");'</style><style>#graph-div{font-family:"trebuchet ms",verdana,arial,sans-serif;font-size:16px;fill:#333;}#graph-div .error-icon{fill:#552222;}#graph-div .error-text{fill:#552222;stroke:#552222;}#graph-div .edge-thickness-normal{stroke-width:2px;}#graph-div .edge-thickness-thick{stroke-width:3.5px;}#graph-div .edge-pattern-solid{stroke-dasharray:0;}#graph-div .edge-pattern-dashed{stroke-dasharray:3;}#graph-div .edge-pattern-dotted{stroke-dasharray:2;}#graph-div .marker{fill:#333333;stroke:#333333;}#graph-div .marker.cross{stroke:#333333;}#graph-div svg{font-family:"trebuchet ms",verdana,arial,sans-serif;font-size:16px;}#graph-div .entityBox{fill:#ECECFF;stroke:#9370DB;}#graph-div .attributeBoxOdd{fill:#ffffff;stroke:#9370DB;}#graph-div .attributeBoxEven{fill:#f2f2f2;stroke:#9370DB;}#graph-div .relationshipLabelBox{fill:hsl(80, 100%, 96.2745098039%);opacity:0.7;background-color:hsl(80, 100%, 96.2745098039%);}#graph-div .relationshipLabelBox rect{opacity:0.5;}#graph-div .relationshipLine{stroke:#333333;}#graph-div .entityTitleText{text-anchor:middle;font-size:18px;fill:#333;}#graph-div :root{--mermaid-font-family:"trebuchet ms",verdana,arial,sans-serif;}</style><g></g><defs><marker orient="auto" markerHeight="18" markerWidth="18" refY="9" refX="0" id="ONLY_ONE_START"><path d="M9,0 L9,18 M15,0 L15,18" fill="none" stroke="gray"></path></marker></defs><defs><marker orient="auto" markerHeight="18" markerWidth="18" refY="9" refX="18" id="ONLY_ONE_END"><path d="M3,0 L3,18 M9,0 L9,18" fill="none" stroke="gray"></path></marker></defs><defs><marker orient="auto" markerHeight="18" markerWidth="30" refY="9" refX="0" id="ZERO_OR_ONE_START"><circle r="6" cy="9" cx="21" fill="white" stroke="gray"></circle><path d="M9,0 L9,18" fill="none" stroke="gray"></path></marker></defs><defs><marker orient="auto" markerHeight="18" markerWidth="30" refY="9" refX="30" id="ZERO_OR_ONE_END"><circle r="6" cy="9" cx="9" fill="white" stroke="gray"></circle><path d="M21,0 L21,18" fill="none" stroke="gray"></path></marker></defs><defs><marker orient="auto" markerHeight="36" markerWidth="45" refY="18" refX="18" id="ONE_OR_MORE_START"><path d="M0,18 Q 18,0 36,18 Q 18,36 0,18 M42,9 L42,27" fill="none" stroke="gray"></path></marker></defs><defs><marker orient="auto" markerHeight="36" markerWidth="45" refY="18" refX="27" id="ONE_OR_MORE_END"><path d="M3,9 L3,27 M9,18 Q27,0 45,18 Q27,36 9,18" fill="none" stroke="gray"></path></marker></defs><defs><marker orient="auto" markerHeight="36" markerWidth="57" refY="18" refX="18" id="ZERO_OR_MORE_START"><circle r="6" cy="18" cx="48" fill="white" stroke="gray"></circle><path d="M0,18 Q18,0 36,18 Q18,36 0,18" fill="none" stroke="gray"></path></marker></defs><defs><marker orient="auto" markerHeight="36" markerWidth="57" refY="18" refX="39" id="ZERO_OR_MORE_END"><circle r="6" cy="18" cx="9" fill="white" stroke="gray"></circle><path d="M21,18 Q39,0 57,18 Q39,36 21,18" fill="none" stroke="gray"></path></marker></defs><path marker-start="url(#ONLY_ONE_START)" marker-end="url(#ONLY_ONE_END)" style="stroke: gray; fill: none;" d="M96.33332824707031,95L96.33332824707031,103.33333333333333C96.33332824707031,111.66666666666667,96.33332824707031,128.33333333333334,96.33332824707031,145C96.33332824707031,161.66666666666666,96.33332824707031,178.33333333333334,96.33332824707031,186.66666666666666L96.33332824707031,195" class="er relationshipLine"></path><path marker-start="url(#ONLY_ONE_START)" marker-end="url(#ONLY_ONE_END)" style="stroke: gray; fill: none;" d="M296.3333282470703,95L296.3333282470703,103.33333333333333C296.3333282470703,111.66666666666667,296.3333282470703,128.33333333333334,317.4444402058919,145.90277814865112C338.55555216471356,163.4722229639689,380.77777608235675,181.94444592793783,401.8888880411784,191.18055740992227L423,200.41666889190674" class="er relationshipLine"></path><path marker-start="url(#ONLY_ONE_START)" marker-end="url(#ONLY_ONE_END)" style="stroke: gray; fill: none;" d="M496.3333282470703,95L496.3333282470703,103.33333333333333C496.3333282470703,111.66666666666667,496.3333282470703,128.33333333333334,496.3333282470703,145C496.3333282470703,161.66666666666666,496.3333282470703,178.33333333333334,496.3333282470703,186.66666666666666L496.3333282470703,195" class="er relationshipLine"></path><path marker-start="url(#ONLY_ONE_START)" marker-end="url(#ONE_OR_MORE_END)" style="stroke: gray; fill: none;" d="M745.4386811937604,95L748.5232052575974,103.33333333333333C751.6077293214344,111.66666666666667,757.7767774491082,128.33333333333334,760.8613015129453,145C763.9458255767822,161.66666666666666,763.9458255767822,178.33333333333334,763.9458255767822,186.66666666666666L763.9458255767822,195" class="er relationshipLine"></path><path marker-start="url(#ONLY_ONE_START)" marker-end="url(#ONLY_ONE_END)" style="stroke: gray; fill: none;" d="M695.0333251953125,95L686.9166590372721,103.33333333333333C678.7999928792318,111.66666666666667,662.566660563151,128.33333333333334,640.1642801193964,145C617.7618996756418,161.66666666666666,589.1904711042132,178.33333333333334,574.9047568184989,186.66666666666666L560.6190425327846,195" class="er relationshipLine"></path><g transform="translate(46.33332824707031,20 )" id="entity-Crime-9a5718e3-d7c9-469e-a5c3-2eb8cc9cb4cd"><rect height="75" width="100" y="0" x="0" class="er entityBox"></rect><text transform="translate(50,37.5)" style="dominant-baseline: middle; text-anchor: middle; font-size: 12px;" y="0" x="0" id="text-entity-Crime-9a5718e3-d7c9-469e-a5c3-2eb8cc9cb4cd" class="er entityLabel">Crime</text></g><g transform="translate(20,195 )" id="entity-CJSCommonPlatform-7e747de3-c491-4fb1-8eb4-123a3ac54419"><rect height="75" width="152.66666412353516" y="0" x="0" class="er entityBox"></rect><text transform="translate(76.33333206176758,37.5)" style="dominant-baseline: middle; text-anchor: middle; font-size: 12px;" y="0" x="0" id="text-entity-CJSCommonPlatform-7e747de3-c491-4fb1-8eb4-123a3ac54419" class="er entityLabel">CJS Common Platform</text></g><g transform="translate(246.3333282470703,20 )" id="entity-CFT-c97eabbf-abc8-410a-858c-51407c8315ef"><rect height="75" width="100" y="0" x="0" class="er entityBox"></rect><text transform="translate(50,37.5)" style="dominant-baseline: middle; text-anchor: middle; font-size: 12px;" y="0" x="0" id="text-entity-CFT-c97eabbf-abc8-410a-858c-51407c8315ef" class="er entityLabel">CFT</text></g><g transform="translate(423,195 )" id="entity-CloudNativePlatform-2645bea1-e058-4cb6-98be-7ad8e0702942"><rect height="75" width="146.66666412353516" y="0" x="0" class="er entityBox"></rect><text transform="translate(73.33333206176758,37.5)" style="dominant-baseline: middle; text-anchor: middle; font-size: 12px;" y="0" x="0" id="text-entity-CloudNativePlatform-2645bea1-e058-4cb6-98be-7ad8e0702942" class="er entityLabel">Cloud Native Platform</text></g><g transform="translate(446.3333282470703,20 )" id="entity-SDS-8c2026a7-b35c-4270-9290-f7952872d2eb"><rect height="75" width="100" y="0" x="0" class="er entityBox"></rect><text transform="translate(50,37.5)" style="dominant-baseline: middle; text-anchor: middle; font-size: 12px;" y="0" x="0" id="text-entity-SDS-8c2026a7-b35c-4270-9290-f7952872d2eb" class="er entityLabel">SDS</text></g><g transform="translate(681.5583229064941,20 )" id="entity-Legacy-a4fbb1f7-2868-4249-bd5d-3f8ba991e54b"><rect height="75" width="100" y="0" x="0" class="er entityBox"></rect><text transform="translate(50,37.5)" style="dominant-baseline: middle; text-anchor: middle; font-size: 12px;" y="0" x="0" id="text-entity-Legacy-a4fbb1f7-2868-4249-bd5d-3f8ba991e54b" class="er entityLabel">Legacy</text></g><g transform="translate(702.0541591644287,195 )" id="entity-VariousPlatforms-194c7dd2-1870-4739-a5f8-55a9f9d52512"><rect height="75" width="123.78333282470703" y="0" x="0" class="er entityBox"></rect><text transform="translate(61.891666412353516,37.5)" style="dominant-baseline: middle; text-anchor: middle; font-size: 12px;" y="0" x="0" id="text-entity-VariousPlatforms-194c7dd2-1870-4739-a5f8-55a9f9d52512" class="er entityLabel">Various Platforms</text></g><rect height="14" width="25.33333396911621" y="138" x="83.6666612625122" class="er relationshipLabelBox"></rect><text style="text-anchor: middle; dominant-baseline: middle; font-size: 12px;" y="145" x="96.33332824707031" id="rel460" class="er relationshipLabel">uses</text><rect height="14" width="25.33333396911621" y="155.830078125" x="330.3510332107544" class="er relationshipLabelBox"></rect><text style="text-anchor: middle; dominant-baseline: middle; font-size: 12px;" y="162.830078125" x="343.0177001953125" id="rel461" class="er relationshipLabel">uses</text><rect height="14" width="25.33333396911621" y="138" x="483.66664600372314" class="er relationshipLabelBox"></rect><text style="text-anchor: middle; dominant-baseline: middle; font-size: 12px;" y="145" x="496.33331298828125" id="rel462" class="er relationshipLabel">uses</text><rect height="14" width="25.33333396911621" y="136.9615478515625" x="747.8871660232544" class="er relationshipLabelBox"></rect><text style="text-anchor: middle; dominant-baseline: middle; font-size: 12px;" y="143.9615478515625" x="760.5538330078125" id="rel463" class="er relationshipLabel">uses</text><rect height="14" width="25.33333396911621" y="143.7599639892578" x="619.5228471755981" class="er relationshipLabelBox"></rect><text style="text-anchor: middle; dominant-baseline: middle; font-size: 12px;" y="150.7599639892578" x="632.1895141601562" id="rel464" class="er relationshipLabel">uses</text></svg>